<mxfile host="app.diagrams.net" agent="Mozilla/5.0 (Windows NT 10.0; Win64; x64) AppleWebKit/537.36 (KHTML, like Gecko) Chrome/127.0.0.0 Safari/537.36" version="24.7.6">
  <diagram name="Page-1" id="muuuc4DIKNp26LD7Z5Yu">
    <mxGraphModel dx="5028" dy="1922" grid="1" gridSize="10" guides="1" tooltips="1" connect="1" arrows="1" fold="1" page="1" pageScale="1" pageWidth="827" pageHeight="1169" math="0" shadow="0">
      <root>
        <mxCell id="0" />
        <mxCell id="1" parent="0" />
        <mxCell id="cw-XEDxfb8f216Z1MOZz-397" style="edgeStyle=orthogonalEdgeStyle;rounded=0;orthogonalLoop=1;jettySize=auto;html=1;exitX=1;exitY=0.75;exitDx=0;exitDy=0;entryX=0;entryY=1;entryDx=0;entryDy=0;" edge="1" parent="1" source="cw-XEDxfb8f216Z1MOZz-2" target="cw-XEDxfb8f216Z1MOZz-396">
          <mxGeometry relative="1" as="geometry" />
        </mxCell>
        <mxCell id="cw-XEDxfb8f216Z1MOZz-2" value="Employee&amp;nbsp;" style="rounded=0;whiteSpace=wrap;html=1;" vertex="1" parent="1">
          <mxGeometry x="-160" y="45" width="120" height="60" as="geometry" />
        </mxCell>
        <mxCell id="cw-XEDxfb8f216Z1MOZz-3" value="Email" style="ellipse;whiteSpace=wrap;html=1;" vertex="1" parent="1">
          <mxGeometry x="-150" y="-25" width="100" height="30" as="geometry" />
        </mxCell>
        <mxCell id="cw-XEDxfb8f216Z1MOZz-5" value="&lt;u&gt;EmpID&lt;/u&gt;" style="ellipse;whiteSpace=wrap;html=1;" vertex="1" parent="1">
          <mxGeometry x="-270" y="-25" width="100" height="30" as="geometry" />
        </mxCell>
        <mxCell id="cw-XEDxfb8f216Z1MOZz-6" value="Name" style="ellipse;whiteSpace=wrap;html=1;" vertex="1" parent="1">
          <mxGeometry x="-50" y="-50" width="100" height="30" as="geometry" />
        </mxCell>
        <mxCell id="cw-XEDxfb8f216Z1MOZz-7" value="Photo" style="ellipse;whiteSpace=wrap;html=1;" vertex="1" parent="1">
          <mxGeometry x="-270" y="25" width="100" height="30" as="geometry" />
        </mxCell>
        <mxCell id="cw-XEDxfb8f216Z1MOZz-12" style="edgeStyle=orthogonalEdgeStyle;rounded=0;orthogonalLoop=1;jettySize=auto;html=1;exitX=1;exitY=0.5;exitDx=0;exitDy=0;entryX=0.425;entryY=1.042;entryDx=0;entryDy=0;entryPerimeter=0;" edge="1" parent="1" source="cw-XEDxfb8f216Z1MOZz-2" target="cw-XEDxfb8f216Z1MOZz-6">
          <mxGeometry relative="1" as="geometry" />
        </mxCell>
        <mxCell id="cw-XEDxfb8f216Z1MOZz-13" style="edgeStyle=orthogonalEdgeStyle;rounded=0;orthogonalLoop=1;jettySize=auto;html=1;exitX=0.75;exitY=0;exitDx=0;exitDy=0;entryX=0.731;entryY=1.055;entryDx=0;entryDy=0;entryPerimeter=0;" edge="1" parent="1" source="cw-XEDxfb8f216Z1MOZz-2" target="cw-XEDxfb8f216Z1MOZz-3">
          <mxGeometry relative="1" as="geometry" />
        </mxCell>
        <mxCell id="cw-XEDxfb8f216Z1MOZz-14" style="edgeStyle=orthogonalEdgeStyle;rounded=0;orthogonalLoop=1;jettySize=auto;html=1;exitX=0.25;exitY=0;exitDx=0;exitDy=0;entryX=0.893;entryY=0.756;entryDx=0;entryDy=0;entryPerimeter=0;" edge="1" parent="1" source="cw-XEDxfb8f216Z1MOZz-2" target="cw-XEDxfb8f216Z1MOZz-5">
          <mxGeometry relative="1" as="geometry" />
        </mxCell>
        <mxCell id="cw-XEDxfb8f216Z1MOZz-15" style="edgeStyle=orthogonalEdgeStyle;rounded=0;orthogonalLoop=1;jettySize=auto;html=1;exitX=0;exitY=0.5;exitDx=0;exitDy=0;entryX=0.753;entryY=1.015;entryDx=0;entryDy=0;entryPerimeter=0;" edge="1" parent="1" source="cw-XEDxfb8f216Z1MOZz-2" target="cw-XEDxfb8f216Z1MOZz-7">
          <mxGeometry relative="1" as="geometry" />
        </mxCell>
        <mxCell id="cw-XEDxfb8f216Z1MOZz-26" style="edgeStyle=orthogonalEdgeStyle;rounded=0;orthogonalLoop=1;jettySize=auto;html=1;exitX=1;exitY=0.5;exitDx=0;exitDy=0;entryX=0.5;entryY=1;entryDx=0;entryDy=0;" edge="1" parent="1" source="cw-XEDxfb8f216Z1MOZz-16" target="cw-XEDxfb8f216Z1MOZz-25">
          <mxGeometry relative="1" as="geometry" />
        </mxCell>
        <mxCell id="cw-XEDxfb8f216Z1MOZz-155" style="edgeStyle=orthogonalEdgeStyle;rounded=0;orthogonalLoop=1;jettySize=auto;html=1;exitX=0.25;exitY=1;exitDx=0;exitDy=0;entryX=0.5;entryY=0;entryDx=0;entryDy=0;" edge="1" parent="1" source="cw-XEDxfb8f216Z1MOZz-16" target="cw-XEDxfb8f216Z1MOZz-154">
          <mxGeometry relative="1" as="geometry" />
        </mxCell>
        <mxCell id="cw-XEDxfb8f216Z1MOZz-16" value="Appointments" style="rounded=0;whiteSpace=wrap;html=1;" vertex="1" parent="1">
          <mxGeometry x="-500" y="290" width="120" height="60" as="geometry" />
        </mxCell>
        <mxCell id="cw-XEDxfb8f216Z1MOZz-17" value="Emp ID" style="ellipse;whiteSpace=wrap;html=1;" vertex="1" parent="1">
          <mxGeometry x="-450" y="180" width="100" height="30" as="geometry" />
        </mxCell>
        <mxCell id="cw-XEDxfb8f216Z1MOZz-18" value="&lt;u&gt;Appointment ID&lt;/u&gt;" style="ellipse;whiteSpace=wrap;html=1;" vertex="1" parent="1">
          <mxGeometry x="-610" y="190" width="100" height="30" as="geometry" />
        </mxCell>
        <mxCell id="cw-XEDxfb8f216Z1MOZz-20" value="Slot ID" style="ellipse;whiteSpace=wrap;html=1;" vertex="1" parent="1">
          <mxGeometry x="-680" y="235" width="100" height="30" as="geometry" />
        </mxCell>
        <mxCell id="cw-XEDxfb8f216Z1MOZz-22" style="edgeStyle=orthogonalEdgeStyle;rounded=0;orthogonalLoop=1;jettySize=auto;html=1;exitX=0.75;exitY=0;exitDx=0;exitDy=0;entryX=0.731;entryY=1.055;entryDx=0;entryDy=0;entryPerimeter=0;" edge="1" parent="1" source="cw-XEDxfb8f216Z1MOZz-16" target="cw-XEDxfb8f216Z1MOZz-17">
          <mxGeometry relative="1" as="geometry" />
        </mxCell>
        <mxCell id="cw-XEDxfb8f216Z1MOZz-23" style="edgeStyle=orthogonalEdgeStyle;rounded=0;orthogonalLoop=1;jettySize=auto;html=1;exitX=0.25;exitY=0;exitDx=0;exitDy=0;entryX=0.893;entryY=0.756;entryDx=0;entryDy=0;entryPerimeter=0;" edge="1" parent="1" source="cw-XEDxfb8f216Z1MOZz-16" target="cw-XEDxfb8f216Z1MOZz-18">
          <mxGeometry relative="1" as="geometry" />
        </mxCell>
        <mxCell id="cw-XEDxfb8f216Z1MOZz-24" style="edgeStyle=orthogonalEdgeStyle;rounded=0;orthogonalLoop=1;jettySize=auto;html=1;exitX=0;exitY=0.25;exitDx=0;exitDy=0;entryX=0.753;entryY=1.015;entryDx=0;entryDy=0;entryPerimeter=0;" edge="1" parent="1" source="cw-XEDxfb8f216Z1MOZz-16" target="cw-XEDxfb8f216Z1MOZz-20">
          <mxGeometry relative="1" as="geometry" />
        </mxCell>
        <mxCell id="cw-XEDxfb8f216Z1MOZz-25" value="Status" style="ellipse;whiteSpace=wrap;html=1;" vertex="1" parent="1">
          <mxGeometry x="-360" y="220" width="100" height="30" as="geometry" />
        </mxCell>
        <mxCell id="cw-XEDxfb8f216Z1MOZz-42" style="edgeStyle=orthogonalEdgeStyle;rounded=0;orthogonalLoop=1;jettySize=auto;html=1;exitX=0;exitY=0.25;exitDx=0;exitDy=0;entryX=0.5;entryY=1;entryDx=0;entryDy=0;" edge="1" parent="1" source="cw-XEDxfb8f216Z1MOZz-40">
          <mxGeometry relative="1" as="geometry">
            <mxPoint x="-850" y="529.38" as="targetPoint" />
          </mxGeometry>
        </mxCell>
        <mxCell id="cw-XEDxfb8f216Z1MOZz-40" value="Prescriptions" style="rounded=0;whiteSpace=wrap;html=1;" vertex="1" parent="1">
          <mxGeometry x="-823" y="548.13" width="120" height="60" as="geometry" />
        </mxCell>
        <mxCell id="cw-XEDxfb8f216Z1MOZz-41" value="&lt;u&gt;Prescription ID&lt;/u&gt;" style="ellipse;whiteSpace=wrap;html=1;" vertex="1" parent="1">
          <mxGeometry x="-900" y="494.38" width="100" height="30" as="geometry" />
        </mxCell>
        <mxCell id="cw-XEDxfb8f216Z1MOZz-151" value="Appointment ID" style="ellipse;whiteSpace=wrap;html=1;" vertex="1" parent="1">
          <mxGeometry x="-770" y="481.88" width="100" height="30" as="geometry" />
        </mxCell>
        <mxCell id="cw-XEDxfb8f216Z1MOZz-153" style="edgeStyle=orthogonalEdgeStyle;rounded=0;orthogonalLoop=1;jettySize=auto;html=1;exitX=0.5;exitY=0;exitDx=0;exitDy=0;entryX=0.44;entryY=0.923;entryDx=0;entryDy=0;entryPerimeter=0;" edge="1" parent="1" source="cw-XEDxfb8f216Z1MOZz-40" target="cw-XEDxfb8f216Z1MOZz-151">
          <mxGeometry relative="1" as="geometry" />
        </mxCell>
        <mxCell id="cw-XEDxfb8f216Z1MOZz-154" value="Diagnosis" style="ellipse;whiteSpace=wrap;html=1;" vertex="1" parent="1">
          <mxGeometry x="-450" y="390" width="100" height="30" as="geometry" />
        </mxCell>
        <mxCell id="cw-XEDxfb8f216Z1MOZz-164" style="edgeStyle=orthogonalEdgeStyle;rounded=0;orthogonalLoop=1;jettySize=auto;html=1;exitX=0.75;exitY=0;exitDx=0;exitDy=0;entryX=0.5;entryY=1;entryDx=0;entryDy=0;" edge="1" parent="1" source="cw-XEDxfb8f216Z1MOZz-157" target="cw-XEDxfb8f216Z1MOZz-161">
          <mxGeometry relative="1" as="geometry" />
        </mxCell>
        <mxCell id="cw-XEDxfb8f216Z1MOZz-165" style="edgeStyle=orthogonalEdgeStyle;rounded=0;orthogonalLoop=1;jettySize=auto;html=1;exitX=0.25;exitY=0;exitDx=0;exitDy=0;entryX=1;entryY=1;entryDx=0;entryDy=0;" edge="1" parent="1" source="cw-XEDxfb8f216Z1MOZz-157" target="cw-XEDxfb8f216Z1MOZz-158">
          <mxGeometry relative="1" as="geometry" />
        </mxCell>
        <mxCell id="cw-XEDxfb8f216Z1MOZz-167" style="edgeStyle=orthogonalEdgeStyle;rounded=0;orthogonalLoop=1;jettySize=auto;html=1;exitX=1;exitY=0.25;exitDx=0;exitDy=0;entryX=0;entryY=0.5;entryDx=0;entryDy=0;" edge="1" parent="1" source="cw-XEDxfb8f216Z1MOZz-157" target="cw-XEDxfb8f216Z1MOZz-163">
          <mxGeometry relative="1" as="geometry" />
        </mxCell>
        <mxCell id="cw-XEDxfb8f216Z1MOZz-169" style="edgeStyle=orthogonalEdgeStyle;rounded=0;orthogonalLoop=1;jettySize=auto;html=1;exitX=0;exitY=0.75;exitDx=0;exitDy=0;" edge="1" parent="1" source="cw-XEDxfb8f216Z1MOZz-157" target="cw-XEDxfb8f216Z1MOZz-168">
          <mxGeometry relative="1" as="geometry" />
        </mxCell>
        <mxCell id="cw-XEDxfb8f216Z1MOZz-365" style="edgeStyle=orthogonalEdgeStyle;rounded=0;orthogonalLoop=1;jettySize=auto;html=1;exitX=0.5;exitY=1;exitDx=0;exitDy=0;entryX=0.5;entryY=0;entryDx=0;entryDy=0;" edge="1" parent="1" source="cw-XEDxfb8f216Z1MOZz-157" target="cw-XEDxfb8f216Z1MOZz-364">
          <mxGeometry relative="1" as="geometry" />
        </mxCell>
        <mxCell id="cw-XEDxfb8f216Z1MOZz-157" value="Prescription Details" style="rounded=0;whiteSpace=wrap;html=1;" vertex="1" parent="1">
          <mxGeometry x="-730" y="958.75" width="120" height="60" as="geometry" />
        </mxCell>
        <mxCell id="cw-XEDxfb8f216Z1MOZz-158" value="Prescription ID" style="ellipse;whiteSpace=wrap;html=1;" vertex="1" parent="1">
          <mxGeometry x="-790" y="853.75" width="100" height="30" as="geometry" />
        </mxCell>
        <mxCell id="cw-XEDxfb8f216Z1MOZz-161" value="&lt;u&gt;Detail ID&lt;/u&gt;" style="ellipse;whiteSpace=wrap;html=1;" vertex="1" parent="1">
          <mxGeometry x="-690" y="873.75" width="100" height="30" as="geometry" />
        </mxCell>
        <mxCell id="cw-XEDxfb8f216Z1MOZz-162" value="Frequency" style="ellipse;whiteSpace=wrap;html=1;" vertex="1" parent="1">
          <mxGeometry x="-850" y="893.75" width="100" height="30" as="geometry" />
        </mxCell>
        <mxCell id="cw-XEDxfb8f216Z1MOZz-163" value="Amount" style="ellipse;whiteSpace=wrap;html=1;" vertex="1" parent="1">
          <mxGeometry x="-580" y="928.75" width="100" height="30" as="geometry" />
        </mxCell>
        <mxCell id="cw-XEDxfb8f216Z1MOZz-166" style="edgeStyle=orthogonalEdgeStyle;rounded=0;orthogonalLoop=1;jettySize=auto;html=1;exitX=0;exitY=0.25;exitDx=0;exitDy=0;entryX=0.925;entryY=0.911;entryDx=0;entryDy=0;entryPerimeter=0;" edge="1" parent="1" source="cw-XEDxfb8f216Z1MOZz-157" target="cw-XEDxfb8f216Z1MOZz-162">
          <mxGeometry relative="1" as="geometry" />
        </mxCell>
        <mxCell id="cw-XEDxfb8f216Z1MOZz-168" value="Notes" style="ellipse;whiteSpace=wrap;html=1;" vertex="1" parent="1">
          <mxGeometry x="-870" y="1028.7" width="100" height="30" as="geometry" />
        </mxCell>
        <mxCell id="cw-XEDxfb8f216Z1MOZz-182" value="Books&amp;nbsp;" style="rhombus;whiteSpace=wrap;html=1;" vertex="1" parent="1">
          <mxGeometry x="-200" y="180" width="140" height="80" as="geometry" />
        </mxCell>
        <mxCell id="cw-XEDxfb8f216Z1MOZz-184" value="" style="endArrow=none;html=1;rounded=0;entryX=0.346;entryY=0.973;entryDx=0;entryDy=0;entryPerimeter=0;exitX=0.5;exitY=0;exitDx=0;exitDy=0;" edge="1" parent="1" source="cw-XEDxfb8f216Z1MOZz-182" target="cw-XEDxfb8f216Z1MOZz-2">
          <mxGeometry width="50" height="50" relative="1" as="geometry">
            <mxPoint x="70" y="300" as="sourcePoint" />
            <mxPoint x="120" y="250" as="targetPoint" />
          </mxGeometry>
        </mxCell>
        <mxCell id="cw-XEDxfb8f216Z1MOZz-187" value="" style="endArrow=none;html=1;rounded=0;exitX=1;exitY=1;exitDx=0;exitDy=0;entryX=0.5;entryY=1;entryDx=0;entryDy=0;" edge="1" parent="1" source="cw-XEDxfb8f216Z1MOZz-16" target="cw-XEDxfb8f216Z1MOZz-182">
          <mxGeometry width="50" height="50" relative="1" as="geometry">
            <mxPoint x="70" y="300" as="sourcePoint" />
            <mxPoint x="120" y="250" as="targetPoint" />
            <Array as="points">
              <mxPoint x="-240" y="320" />
            </Array>
          </mxGeometry>
        </mxCell>
        <mxCell id="cw-XEDxfb8f216Z1MOZz-188" value="M" style="text;html=1;align=center;verticalAlign=middle;whiteSpace=wrap;rounded=0;" vertex="1" parent="1">
          <mxGeometry x="-150" y="260" width="60" height="30" as="geometry" />
        </mxCell>
        <mxCell id="cw-XEDxfb8f216Z1MOZz-190" value="M" style="text;html=1;align=center;verticalAlign=middle;whiteSpace=wrap;rounded=0;" vertex="1" parent="1">
          <mxGeometry x="-140" y="150" width="60" height="30" as="geometry" />
        </mxCell>
        <mxCell id="cw-XEDxfb8f216Z1MOZz-191" value="Has" style="rhombus;whiteSpace=wrap;html=1;" vertex="1" parent="1">
          <mxGeometry x="-665" y="390" width="130" height="80" as="geometry" />
        </mxCell>
        <mxCell id="cw-XEDxfb8f216Z1MOZz-192" value="" style="endArrow=none;html=1;rounded=0;exitX=0.5;exitY=0;exitDx=0;exitDy=0;entryX=0;entryY=1;entryDx=0;entryDy=0;" edge="1" parent="1" source="cw-XEDxfb8f216Z1MOZz-191" target="cw-XEDxfb8f216Z1MOZz-16">
          <mxGeometry width="50" height="50" relative="1" as="geometry">
            <mxPoint x="-200" y="500" as="sourcePoint" />
            <mxPoint x="-150" y="450" as="targetPoint" />
          </mxGeometry>
        </mxCell>
        <mxCell id="cw-XEDxfb8f216Z1MOZz-193" value="" style="endArrow=none;html=1;rounded=0;exitX=1;exitY=0;exitDx=0;exitDy=0;entryX=0.5;entryY=1;entryDx=0;entryDy=0;" edge="1" parent="1" source="cw-XEDxfb8f216Z1MOZz-40" target="cw-XEDxfb8f216Z1MOZz-191">
          <mxGeometry width="50" height="50" relative="1" as="geometry">
            <mxPoint x="-200" y="500" as="sourcePoint" />
            <mxPoint x="-150" y="450" as="targetPoint" />
          </mxGeometry>
        </mxCell>
        <mxCell id="cw-XEDxfb8f216Z1MOZz-194" value="1" style="text;html=1;align=center;verticalAlign=middle;whiteSpace=wrap;rounded=0;" vertex="1" parent="1">
          <mxGeometry x="-630" y="360" width="60" height="30" as="geometry" />
        </mxCell>
        <mxCell id="cw-XEDxfb8f216Z1MOZz-195" value="1" style="text;html=1;align=center;verticalAlign=middle;whiteSpace=wrap;rounded=0;" vertex="1" parent="1">
          <mxGeometry x="-620" y="464.38" width="60" height="30" as="geometry" />
        </mxCell>
        <mxCell id="cw-XEDxfb8f216Z1MOZz-199" value="" style="endArrow=none;html=1;rounded=0;exitX=0;exitY=1;exitDx=0;exitDy=0;entryX=0.5;entryY=0;entryDx=0;entryDy=0;" edge="1" parent="1" source="cw-XEDxfb8f216Z1MOZz-40" target="cw-XEDxfb8f216Z1MOZz-200">
          <mxGeometry width="50" height="50" relative="1" as="geometry">
            <mxPoint x="-200" y="710" as="sourcePoint" />
            <mxPoint x="-790" y="660" as="targetPoint" />
          </mxGeometry>
        </mxCell>
        <mxCell id="cw-XEDxfb8f216Z1MOZz-200" value="Has" style="rhombus;whiteSpace=wrap;html=1;" vertex="1" parent="1">
          <mxGeometry x="-850" y="655" width="130" height="80" as="geometry" />
        </mxCell>
        <mxCell id="cw-XEDxfb8f216Z1MOZz-203" value="" style="endArrow=none;html=1;rounded=0;exitX=0.5;exitY=1;exitDx=0;exitDy=0;entryX=0;entryY=0.5;entryDx=0;entryDy=0;" edge="1" parent="1" source="cw-XEDxfb8f216Z1MOZz-200" target="cw-XEDxfb8f216Z1MOZz-157">
          <mxGeometry width="50" height="50" relative="1" as="geometry">
            <mxPoint x="-200" y="710" as="sourcePoint" />
            <mxPoint x="-150" y="660" as="targetPoint" />
          </mxGeometry>
        </mxCell>
        <mxCell id="cw-XEDxfb8f216Z1MOZz-204" value="1" style="text;html=1;align=center;verticalAlign=middle;whiteSpace=wrap;rounded=0;" vertex="1" parent="1">
          <mxGeometry x="-810" y="625" width="60" height="30" as="geometry" />
        </mxCell>
        <mxCell id="cw-XEDxfb8f216Z1MOZz-205" value="M" style="text;html=1;align=center;verticalAlign=middle;whiteSpace=wrap;rounded=0;" vertex="1" parent="1">
          <mxGeometry x="-823" y="730" width="60" height="30" as="geometry" />
        </mxCell>
        <mxCell id="cw-XEDxfb8f216Z1MOZz-206" style="edgeStyle=orthogonalEdgeStyle;rounded=0;orthogonalLoop=1;jettySize=auto;html=1;exitX=0;exitY=0.5;exitDx=0;exitDy=0;entryX=0.5;entryY=1;entryDx=0;entryDy=0;" edge="1" parent="1" source="cw-XEDxfb8f216Z1MOZz-208" target="cw-XEDxfb8f216Z1MOZz-209">
          <mxGeometry relative="1" as="geometry" />
        </mxCell>
        <mxCell id="cw-XEDxfb8f216Z1MOZz-207" style="edgeStyle=orthogonalEdgeStyle;rounded=0;orthogonalLoop=1;jettySize=auto;html=1;exitX=1;exitY=0.5;exitDx=0;exitDy=0;entryX=1;entryY=1;entryDx=0;entryDy=0;" edge="1" parent="1" source="cw-XEDxfb8f216Z1MOZz-208" target="cw-XEDxfb8f216Z1MOZz-210">
          <mxGeometry relative="1" as="geometry" />
        </mxCell>
        <mxCell id="cw-XEDxfb8f216Z1MOZz-208" value="Departments" style="rounded=0;whiteSpace=wrap;html=1;" vertex="1" parent="1">
          <mxGeometry x="-1175" y="790" width="170" height="70" as="geometry" />
        </mxCell>
        <mxCell id="cw-XEDxfb8f216Z1MOZz-209" value="&lt;u&gt;Dept ID&lt;/u&gt;" style="ellipse;whiteSpace=wrap;html=1;" vertex="1" parent="1">
          <mxGeometry x="-1355" y="910" width="100" height="30" as="geometry" />
        </mxCell>
        <mxCell id="cw-XEDxfb8f216Z1MOZz-210" value="Dept Name" style="ellipse;whiteSpace=wrap;html=1;" vertex="1" parent="1">
          <mxGeometry x="-1070" y="923.75" width="100" height="30" as="geometry" />
        </mxCell>
        <mxCell id="cw-XEDxfb8f216Z1MOZz-211" style="edgeStyle=orthogonalEdgeStyle;rounded=0;orthogonalLoop=1;jettySize=auto;html=1;exitX=0.5;exitY=0;exitDx=0;exitDy=0;entryX=0.5;entryY=1;entryDx=0;entryDy=0;" edge="1" parent="1" source="cw-XEDxfb8f216Z1MOZz-213" target="cw-XEDxfb8f216Z1MOZz-215">
          <mxGeometry relative="1" as="geometry" />
        </mxCell>
        <mxCell id="cw-XEDxfb8f216Z1MOZz-212" style="edgeStyle=orthogonalEdgeStyle;rounded=0;orthogonalLoop=1;jettySize=auto;html=1;exitX=1;exitY=0.5;exitDx=0;exitDy=0;entryX=0;entryY=0.5;entryDx=0;entryDy=0;" edge="1" parent="1" source="cw-XEDxfb8f216Z1MOZz-213" target="cw-XEDxfb8f216Z1MOZz-218">
          <mxGeometry relative="1" as="geometry" />
        </mxCell>
        <mxCell id="cw-XEDxfb8f216Z1MOZz-446" style="edgeStyle=orthogonalEdgeStyle;rounded=0;orthogonalLoop=1;jettySize=auto;html=1;exitX=0.5;exitY=1;exitDx=0;exitDy=0;" edge="1" parent="1" source="cw-XEDxfb8f216Z1MOZz-213">
          <mxGeometry relative="1" as="geometry">
            <mxPoint x="50" y="720" as="targetPoint" />
          </mxGeometry>
        </mxCell>
        <mxCell id="cw-XEDxfb8f216Z1MOZz-213" value="Lab Reports" style="rounded=0;whiteSpace=wrap;html=1;" vertex="1" parent="1">
          <mxGeometry x="-30" y="576.6800000000001" width="120" height="60" as="geometry" />
        </mxCell>
        <mxCell id="cw-XEDxfb8f216Z1MOZz-214" value="&lt;u&gt;Report Id&lt;/u&gt;" style="ellipse;whiteSpace=wrap;html=1;" vertex="1" parent="1">
          <mxGeometry x="-210" y="530.0000000000001" width="100" height="30" as="geometry" />
        </mxCell>
        <mxCell id="cw-XEDxfb8f216Z1MOZz-215" value="Test Appointment ID" style="ellipse;whiteSpace=wrap;html=1;rotation=0;" vertex="1" parent="1">
          <mxGeometry x="-20.039999999999964" y="488.31" width="120" height="30" as="geometry" />
        </mxCell>
        <mxCell id="cw-XEDxfb8f216Z1MOZz-216" value="Lab Name" style="ellipse;whiteSpace=wrap;html=1;" vertex="1" parent="1">
          <mxGeometry x="120" y="526.6800000000001" width="100" height="30" as="geometry" />
        </mxCell>
        <mxCell id="cw-XEDxfb8f216Z1MOZz-217" value="Payment Status" style="ellipse;whiteSpace=wrap;html=1;" vertex="1" parent="1">
          <mxGeometry x="-150" y="596.6800000000001" width="100" height="30" as="geometry" />
        </mxCell>
        <mxCell id="cw-XEDxfb8f216Z1MOZz-218" value="PDF" style="ellipse;whiteSpace=wrap;html=1;" vertex="1" parent="1">
          <mxGeometry x="120" y="606.6800000000001" width="100" height="30" as="geometry" />
        </mxCell>
        <mxCell id="cw-XEDxfb8f216Z1MOZz-219" style="edgeStyle=orthogonalEdgeStyle;rounded=0;orthogonalLoop=1;jettySize=auto;html=1;exitX=1;exitY=0.25;exitDx=0;exitDy=0;entryX=0.065;entryY=0.858;entryDx=0;entryDy=0;entryPerimeter=0;" edge="1" parent="1" source="cw-XEDxfb8f216Z1MOZz-213" target="cw-XEDxfb8f216Z1MOZz-216">
          <mxGeometry relative="1" as="geometry" />
        </mxCell>
        <mxCell id="cw-XEDxfb8f216Z1MOZz-220" style="edgeStyle=orthogonalEdgeStyle;rounded=0;orthogonalLoop=1;jettySize=auto;html=1;exitX=0;exitY=0;exitDx=0;exitDy=0;entryX=0.94;entryY=0.858;entryDx=0;entryDy=0;entryPerimeter=0;" edge="1" parent="1" source="cw-XEDxfb8f216Z1MOZz-213" target="cw-XEDxfb8f216Z1MOZz-214">
          <mxGeometry relative="1" as="geometry">
            <Array as="points">
              <mxPoint x="-30" y="570" />
              <mxPoint x="-70" y="570" />
              <mxPoint x="-70" y="580" />
              <mxPoint x="-116" y="580" />
            </Array>
          </mxGeometry>
        </mxCell>
        <mxCell id="cw-XEDxfb8f216Z1MOZz-221" style="edgeStyle=orthogonalEdgeStyle;rounded=0;orthogonalLoop=1;jettySize=auto;html=1;exitX=0;exitY=0.5;exitDx=0;exitDy=0;entryX=1.025;entryY=0.342;entryDx=0;entryDy=0;entryPerimeter=0;" edge="1" parent="1" source="cw-XEDxfb8f216Z1MOZz-213" target="cw-XEDxfb8f216Z1MOZz-217">
          <mxGeometry relative="1" as="geometry" />
        </mxCell>
        <mxCell id="cw-XEDxfb8f216Z1MOZz-222" value="Date" style="ellipse;whiteSpace=wrap;html=1;" vertex="1" parent="1">
          <mxGeometry x="100" y="661.6800000000001" width="100" height="30" as="geometry" />
        </mxCell>
        <mxCell id="cw-XEDxfb8f216Z1MOZz-223" style="edgeStyle=orthogonalEdgeStyle;rounded=0;orthogonalLoop=1;jettySize=auto;html=1;exitX=1;exitY=1;exitDx=0;exitDy=0;entryX=0.255;entryY=0.092;entryDx=0;entryDy=0;entryPerimeter=0;" edge="1" parent="1" source="cw-XEDxfb8f216Z1MOZz-213" target="cw-XEDxfb8f216Z1MOZz-222">
          <mxGeometry relative="1" as="geometry" />
        </mxCell>
        <mxCell id="cw-XEDxfb8f216Z1MOZz-224" value="Contains" style="rhombus;whiteSpace=wrap;html=1;" vertex="1" parent="1">
          <mxGeometry x="-230" y="410" width="150" height="80" as="geometry" />
        </mxCell>
        <mxCell id="cw-XEDxfb8f216Z1MOZz-225" value="" style="endArrow=none;html=1;rounded=0;exitX=0.75;exitY=1;exitDx=0;exitDy=0;entryX=0.5;entryY=0;entryDx=0;entryDy=0;" edge="1" parent="1" source="cw-XEDxfb8f216Z1MOZz-16" target="cw-XEDxfb8f216Z1MOZz-224">
          <mxGeometry width="50" height="50" relative="1" as="geometry">
            <mxPoint x="-210" y="470" as="sourcePoint" />
            <mxPoint x="-160" y="420" as="targetPoint" />
          </mxGeometry>
        </mxCell>
        <mxCell id="cw-XEDxfb8f216Z1MOZz-226" value="" style="endArrow=none;html=1;rounded=0;exitX=0.5;exitY=1;exitDx=0;exitDy=0;entryX=0.25;entryY=0;entryDx=0;entryDy=0;" edge="1" parent="1" source="cw-XEDxfb8f216Z1MOZz-224" target="cw-XEDxfb8f216Z1MOZz-213">
          <mxGeometry width="50" height="50" relative="1" as="geometry">
            <mxPoint x="-210" y="470" as="sourcePoint" />
            <mxPoint x="-160" y="420" as="targetPoint" />
          </mxGeometry>
        </mxCell>
        <mxCell id="cw-XEDxfb8f216Z1MOZz-227" value="1" style="text;html=1;align=center;verticalAlign=middle;whiteSpace=wrap;rounded=0;" vertex="1" parent="1">
          <mxGeometry x="-200" y="380" width="60" height="30" as="geometry" />
        </mxCell>
        <mxCell id="cw-XEDxfb8f216Z1MOZz-228" value="M" style="text;html=1;align=center;verticalAlign=middle;whiteSpace=wrap;rounded=0;" vertex="1" parent="1">
          <mxGeometry x="-200" y="481.88" width="60" height="30" as="geometry" />
        </mxCell>
        <mxCell id="cw-XEDxfb8f216Z1MOZz-260" style="edgeStyle=orthogonalEdgeStyle;rounded=0;orthogonalLoop=1;jettySize=auto;html=1;exitX=0;exitY=0;exitDx=0;exitDy=0;entryX=1;entryY=0.5;entryDx=0;entryDy=0;" edge="1" parent="1" source="cw-XEDxfb8f216Z1MOZz-262" target="cw-XEDxfb8f216Z1MOZz-267">
          <mxGeometry relative="1" as="geometry" />
        </mxCell>
        <mxCell id="cw-XEDxfb8f216Z1MOZz-261" style="edgeStyle=orthogonalEdgeStyle;rounded=0;orthogonalLoop=1;jettySize=auto;html=1;exitX=0.25;exitY=0;exitDx=0;exitDy=0;entryX=1;entryY=1;entryDx=0;entryDy=0;" edge="1" parent="1" source="cw-XEDxfb8f216Z1MOZz-262" target="cw-XEDxfb8f216Z1MOZz-268">
          <mxGeometry relative="1" as="geometry" />
        </mxCell>
        <mxCell id="cw-XEDxfb8f216Z1MOZz-413" style="edgeStyle=orthogonalEdgeStyle;rounded=0;orthogonalLoop=1;jettySize=auto;html=1;exitX=0.5;exitY=0;exitDx=0;exitDy=0;" edge="1" parent="1" source="cw-XEDxfb8f216Z1MOZz-262">
          <mxGeometry relative="1" as="geometry">
            <mxPoint x="-1040" y="40" as="targetPoint" />
          </mxGeometry>
        </mxCell>
        <mxCell id="cw-XEDxfb8f216Z1MOZz-262" value="Doctor" style="rounded=0;whiteSpace=wrap;html=1;" vertex="1" parent="1">
          <mxGeometry x="-1065" y="200" width="120" height="60" as="geometry" />
        </mxCell>
        <mxCell id="cw-XEDxfb8f216Z1MOZz-263" value="Mobile Number" style="ellipse;whiteSpace=wrap;html=1;" vertex="1" parent="1">
          <mxGeometry x="-1285" y="120" width="100" height="30" as="geometry" />
        </mxCell>
        <mxCell id="cw-XEDxfb8f216Z1MOZz-264" value="&lt;u&gt;Doctor ID&lt;/u&gt;" style="ellipse;whiteSpace=wrap;html=1;" vertex="1" parent="1">
          <mxGeometry x="-1195" y="240" width="100" height="30" as="geometry" />
        </mxCell>
        <mxCell id="cw-XEDxfb8f216Z1MOZz-265" style="edgeStyle=orthogonalEdgeStyle;rounded=0;orthogonalLoop=1;jettySize=auto;html=1;exitX=0.75;exitY=0;exitDx=0;exitDy=0;entryX=0.731;entryY=1.055;entryDx=0;entryDy=0;entryPerimeter=0;" edge="1" parent="1" source="cw-XEDxfb8f216Z1MOZz-262" target="cw-XEDxfb8f216Z1MOZz-263">
          <mxGeometry relative="1" as="geometry" />
        </mxCell>
        <mxCell id="cw-XEDxfb8f216Z1MOZz-266" style="edgeStyle=orthogonalEdgeStyle;rounded=0;orthogonalLoop=1;jettySize=auto;html=1;exitX=0;exitY=0.5;exitDx=0;exitDy=0;entryX=0.753;entryY=1.015;entryDx=0;entryDy=0;entryPerimeter=0;" edge="1" parent="1" source="cw-XEDxfb8f216Z1MOZz-262" target="cw-XEDxfb8f216Z1MOZz-264">
          <mxGeometry relative="1" as="geometry" />
        </mxCell>
        <mxCell id="cw-XEDxfb8f216Z1MOZz-267" value="Password" style="ellipse;whiteSpace=wrap;html=1;" vertex="1" parent="1">
          <mxGeometry x="-1195" y="140" width="100" height="30" as="geometry" />
        </mxCell>
        <mxCell id="cw-XEDxfb8f216Z1MOZz-268" value="Department ID" style="ellipse;whiteSpace=wrap;html=1;" vertex="1" parent="1">
          <mxGeometry x="-1170" y="100" width="100" height="30" as="geometry" />
        </mxCell>
        <mxCell id="cw-XEDxfb8f216Z1MOZz-269" value="Doctor&#39;s Position" style="ellipse;whiteSpace=wrap;html=1;" vertex="1" parent="1">
          <mxGeometry x="-1240" y="330" width="120" height="40" as="geometry" />
        </mxCell>
        <mxCell id="cw-XEDxfb8f216Z1MOZz-270" value="Name" style="ellipse;whiteSpace=wrap;html=1;" vertex="1" parent="1">
          <mxGeometry x="-915" y="150" width="100" height="30" as="geometry" />
        </mxCell>
        <mxCell id="cw-XEDxfb8f216Z1MOZz-271" style="edgeStyle=orthogonalEdgeStyle;rounded=0;orthogonalLoop=1;jettySize=auto;html=1;exitX=1;exitY=0;exitDx=0;exitDy=0;entryX=0.07;entryY=0.942;entryDx=0;entryDy=0;entryPerimeter=0;" edge="1" parent="1" source="cw-XEDxfb8f216Z1MOZz-262" target="cw-XEDxfb8f216Z1MOZz-270">
          <mxGeometry relative="1" as="geometry" />
        </mxCell>
        <mxCell id="cw-XEDxfb8f216Z1MOZz-272" value="Medical Field ID&amp;nbsp;" style="ellipse;whiteSpace=wrap;html=1;" vertex="1" parent="1">
          <mxGeometry x="-895" y="225" width="120" height="40" as="geometry" />
        </mxCell>
        <mxCell id="cw-XEDxfb8f216Z1MOZz-273" style="edgeStyle=orthogonalEdgeStyle;rounded=0;orthogonalLoop=1;jettySize=auto;html=1;exitX=1;exitY=0.5;exitDx=0;exitDy=0;entryX=0.088;entryY=0.119;entryDx=0;entryDy=0;entryPerimeter=0;" edge="1" parent="1" source="cw-XEDxfb8f216Z1MOZz-262" target="cw-XEDxfb8f216Z1MOZz-272">
          <mxGeometry relative="1" as="geometry" />
        </mxCell>
        <mxCell id="cw-XEDxfb8f216Z1MOZz-274" style="edgeStyle=orthogonalEdgeStyle;rounded=0;orthogonalLoop=1;jettySize=auto;html=1;exitX=0.5;exitY=1;exitDx=0;exitDy=0;entryX=0.088;entryY=0.269;entryDx=0;entryDy=0;entryPerimeter=0;" edge="1" parent="1" source="cw-XEDxfb8f216Z1MOZz-262" target="cw-XEDxfb8f216Z1MOZz-269">
          <mxGeometry relative="1" as="geometry" />
        </mxCell>
        <mxCell id="cw-XEDxfb8f216Z1MOZz-275" value="" style="endArrow=none;html=1;rounded=0;exitX=0.75;exitY=1;exitDx=0;exitDy=0;" edge="1" parent="1" source="cw-XEDxfb8f216Z1MOZz-262" target="cw-XEDxfb8f216Z1MOZz-276">
          <mxGeometry width="50" height="50" relative="1" as="geometry">
            <mxPoint x="-670" y="370" as="sourcePoint" />
            <mxPoint x="-900" y="320" as="targetPoint" />
          </mxGeometry>
        </mxCell>
        <mxCell id="cw-XEDxfb8f216Z1MOZz-276" value="Has" style="rhombus;whiteSpace=wrap;html=1;" vertex="1" parent="1">
          <mxGeometry x="-865" y="290" width="170" height="80" as="geometry" />
        </mxCell>
        <mxCell id="cw-XEDxfb8f216Z1MOZz-277" value="" style="endArrow=none;html=1;rounded=0;exitX=1;exitY=0.5;exitDx=0;exitDy=0;entryX=0;entryY=0.5;entryDx=0;entryDy=0;" edge="1" parent="1" source="cw-XEDxfb8f216Z1MOZz-276" target="cw-XEDxfb8f216Z1MOZz-16">
          <mxGeometry width="50" height="50" relative="1" as="geometry">
            <mxPoint x="-670" y="370" as="sourcePoint" />
            <mxPoint x="-620" y="320" as="targetPoint" />
          </mxGeometry>
        </mxCell>
        <mxCell id="cw-XEDxfb8f216Z1MOZz-278" value="M" style="text;html=1;align=center;verticalAlign=middle;whiteSpace=wrap;rounded=0;" vertex="1" parent="1">
          <mxGeometry x="-703" y="330" width="60" height="30" as="geometry" />
        </mxCell>
        <mxCell id="cw-XEDxfb8f216Z1MOZz-279" value="1" style="text;html=1;align=center;verticalAlign=middle;whiteSpace=wrap;rounded=0;" vertex="1" parent="1">
          <mxGeometry x="-915" y="300" width="60" height="30" as="geometry" />
        </mxCell>
        <mxCell id="cw-XEDxfb8f216Z1MOZz-280" style="edgeStyle=orthogonalEdgeStyle;rounded=0;orthogonalLoop=1;jettySize=auto;html=1;exitX=0;exitY=0;exitDx=0;exitDy=0;entryX=1;entryY=0.5;entryDx=0;entryDy=0;" edge="1" parent="1" source="cw-XEDxfb8f216Z1MOZz-284" target="cw-XEDxfb8f216Z1MOZz-287">
          <mxGeometry relative="1" as="geometry" />
        </mxCell>
        <mxCell id="cw-XEDxfb8f216Z1MOZz-281" style="edgeStyle=orthogonalEdgeStyle;rounded=0;orthogonalLoop=1;jettySize=auto;html=1;exitX=0.25;exitY=0;exitDx=0;exitDy=0;entryX=0.5;entryY=1;entryDx=0;entryDy=0;" edge="1" parent="1" source="cw-XEDxfb8f216Z1MOZz-284" target="cw-XEDxfb8f216Z1MOZz-288">
          <mxGeometry relative="1" as="geometry" />
        </mxCell>
        <mxCell id="cw-XEDxfb8f216Z1MOZz-282" style="edgeStyle=orthogonalEdgeStyle;rounded=0;orthogonalLoop=1;jettySize=auto;html=1;exitX=0.75;exitY=0;exitDx=0;exitDy=0;entryX=0;entryY=1;entryDx=0;entryDy=0;" edge="1" parent="1" source="cw-XEDxfb8f216Z1MOZz-284" target="cw-XEDxfb8f216Z1MOZz-289">
          <mxGeometry relative="1" as="geometry" />
        </mxCell>
        <mxCell id="cw-XEDxfb8f216Z1MOZz-283" style="edgeStyle=orthogonalEdgeStyle;rounded=0;orthogonalLoop=1;jettySize=auto;html=1;exitX=1;exitY=0.5;exitDx=0;exitDy=0;entryX=0;entryY=0.5;entryDx=0;entryDy=0;" edge="1" parent="1" source="cw-XEDxfb8f216Z1MOZz-284" target="cw-XEDxfb8f216Z1MOZz-292">
          <mxGeometry relative="1" as="geometry" />
        </mxCell>
        <mxCell id="cw-XEDxfb8f216Z1MOZz-284" value="Medical Field" style="rounded=0;whiteSpace=wrap;html=1;" vertex="1" parent="1">
          <mxGeometry x="-1740" y="-25" width="120" height="60" as="geometry" />
        </mxCell>
        <mxCell id="cw-XEDxfb8f216Z1MOZz-285" value="Username" style="ellipse;whiteSpace=wrap;html=1;" vertex="1" parent="1">
          <mxGeometry x="-1910" y="5" width="100" height="30" as="geometry" />
        </mxCell>
        <mxCell id="cw-XEDxfb8f216Z1MOZz-286" style="edgeStyle=orthogonalEdgeStyle;rounded=0;orthogonalLoop=1;jettySize=auto;html=1;exitX=0;exitY=0.5;exitDx=0;exitDy=0;entryX=0.753;entryY=1.015;entryDx=0;entryDy=0;entryPerimeter=0;" edge="1" parent="1" source="cw-XEDxfb8f216Z1MOZz-284" target="cw-XEDxfb8f216Z1MOZz-285">
          <mxGeometry relative="1" as="geometry" />
        </mxCell>
        <mxCell id="cw-XEDxfb8f216Z1MOZz-287" value="Password" style="ellipse;whiteSpace=wrap;html=1;" vertex="1" parent="1">
          <mxGeometry x="-1930" y="-160" width="100" height="30" as="geometry" />
        </mxCell>
        <mxCell id="cw-XEDxfb8f216Z1MOZz-288" value="Name" style="ellipse;whiteSpace=wrap;html=1;" vertex="1" parent="1">
          <mxGeometry x="-1754" y="-190" width="100" height="30" as="geometry" />
        </mxCell>
        <mxCell id="cw-XEDxfb8f216Z1MOZz-289" value="Contact Method" style="ellipse;whiteSpace=wrap;html=1;" vertex="1" parent="1">
          <mxGeometry x="-1650" y="-90" width="100" height="30" as="geometry" />
        </mxCell>
        <mxCell id="cw-XEDxfb8f216Z1MOZz-290" value="&lt;u&gt;Medical Field ID&lt;/u&gt;" style="ellipse;whiteSpace=wrap;html=1;" vertex="1" parent="1">
          <mxGeometry x="-1740" y="70.04999999999995" width="100" height="30" as="geometry" />
        </mxCell>
        <mxCell id="cw-XEDxfb8f216Z1MOZz-291" style="edgeStyle=orthogonalEdgeStyle;rounded=0;orthogonalLoop=1;jettySize=auto;html=1;exitX=0.25;exitY=1;exitDx=0;exitDy=0;entryX=0.445;entryY=0.261;entryDx=0;entryDy=0;entryPerimeter=0;" edge="1" parent="1" source="cw-XEDxfb8f216Z1MOZz-284" target="cw-XEDxfb8f216Z1MOZz-290">
          <mxGeometry relative="1" as="geometry" />
        </mxCell>
        <mxCell id="cw-XEDxfb8f216Z1MOZz-292" value="Middle Man ID" style="ellipse;whiteSpace=wrap;html=1;" vertex="1" parent="1">
          <mxGeometry x="-1600" y="0.049999999999954525" width="100" height="30" as="geometry" />
        </mxCell>
        <mxCell id="cw-XEDxfb8f216Z1MOZz-293" value="Belongs To" style="rhombus;whiteSpace=wrap;html=1;" vertex="1" parent="1">
          <mxGeometry x="-1480" y="140" width="170" height="80" as="geometry" />
        </mxCell>
        <mxCell id="cw-XEDxfb8f216Z1MOZz-294" value="" style="endArrow=none;html=1;rounded=0;exitX=0.5;exitY=1;exitDx=0;exitDy=0;entryX=0.5;entryY=0;entryDx=0;entryDy=0;" edge="1" parent="1" source="cw-XEDxfb8f216Z1MOZz-284" target="cw-XEDxfb8f216Z1MOZz-293">
          <mxGeometry width="50" height="50" relative="1" as="geometry">
            <mxPoint x="-990" y="290" as="sourcePoint" />
            <mxPoint x="-940" y="240" as="targetPoint" />
          </mxGeometry>
        </mxCell>
        <mxCell id="cw-XEDxfb8f216Z1MOZz-295" value="" style="endArrow=none;html=1;rounded=0;exitX=1;exitY=0.5;exitDx=0;exitDy=0;" edge="1" parent="1" source="cw-XEDxfb8f216Z1MOZz-293">
          <mxGeometry width="50" height="50" relative="1" as="geometry">
            <mxPoint x="-990" y="290" as="sourcePoint" />
            <mxPoint x="-1065" y="220" as="targetPoint" />
          </mxGeometry>
        </mxCell>
        <mxCell id="cw-XEDxfb8f216Z1MOZz-296" value="1" style="text;html=1;align=center;verticalAlign=middle;whiteSpace=wrap;rounded=0;" vertex="1" parent="1">
          <mxGeometry x="-1450" y="100.05" width="60" height="30" as="geometry" />
        </mxCell>
        <mxCell id="cw-XEDxfb8f216Z1MOZz-297" value="M" style="text;html=1;align=center;verticalAlign=middle;resizable=0;points=[];autosize=1;strokeColor=none;fillColor=none;" vertex="1" parent="1">
          <mxGeometry x="-1320" y="180" width="30" height="30" as="geometry" />
        </mxCell>
        <mxCell id="cw-XEDxfb8f216Z1MOZz-298" value="Works For" style="rhombus;whiteSpace=wrap;html=1;" vertex="1" parent="1">
          <mxGeometry x="-1185" y="433.55999999999995" width="150" height="153.32" as="geometry" />
        </mxCell>
        <mxCell id="cw-XEDxfb8f216Z1MOZz-302" value="" style="endArrow=none;html=1;rounded=0;exitX=0.5;exitY=0;exitDx=0;exitDy=0;entryX=0.75;entryY=1;entryDx=0;entryDy=0;" edge="1" parent="1" source="cw-XEDxfb8f216Z1MOZz-298" target="cw-XEDxfb8f216Z1MOZz-262">
          <mxGeometry width="50" height="50" relative="1" as="geometry">
            <mxPoint x="-1100" y="616.88" as="sourcePoint" />
            <mxPoint x="-1050" y="566.88" as="targetPoint" />
          </mxGeometry>
        </mxCell>
        <mxCell id="cw-XEDxfb8f216Z1MOZz-308" value="" style="endArrow=none;html=1;rounded=0;entryX=0.5;entryY=1;entryDx=0;entryDy=0;exitX=0.321;exitY=0.016;exitDx=0;exitDy=0;exitPerimeter=0;" edge="1" parent="1" source="cw-XEDxfb8f216Z1MOZz-208" target="cw-XEDxfb8f216Z1MOZz-298">
          <mxGeometry width="50" height="50" relative="1" as="geometry">
            <mxPoint x="-1220" y="840" as="sourcePoint" />
            <mxPoint x="-1170" y="790" as="targetPoint" />
          </mxGeometry>
        </mxCell>
        <mxCell id="cw-XEDxfb8f216Z1MOZz-311" value="M" style="text;html=1;align=center;verticalAlign=middle;whiteSpace=wrap;rounded=0;" vertex="1" parent="1">
          <mxGeometry x="-1115" y="420" width="60" height="30" as="geometry" />
        </mxCell>
        <mxCell id="cw-XEDxfb8f216Z1MOZz-312" value="1" style="text;html=1;align=center;verticalAlign=middle;whiteSpace=wrap;rounded=0;" vertex="1" parent="1">
          <mxGeometry x="-1120" y="586.88" width="60" height="30" as="geometry" />
        </mxCell>
        <mxCell id="cw-XEDxfb8f216Z1MOZz-315" style="edgeStyle=orthogonalEdgeStyle;rounded=0;orthogonalLoop=1;jettySize=auto;html=1;exitX=0;exitY=0;exitDx=0;exitDy=0;entryX=1;entryY=0.5;entryDx=0;entryDy=0;" edge="1" parent="1" source="cw-XEDxfb8f216Z1MOZz-316" target="cw-XEDxfb8f216Z1MOZz-323">
          <mxGeometry relative="1" as="geometry" />
        </mxCell>
        <mxCell id="cw-XEDxfb8f216Z1MOZz-316" value="Middle Man" style="rounded=0;whiteSpace=wrap;html=1;" vertex="1" parent="1">
          <mxGeometry x="-2630" y="248.74" width="120" height="60" as="geometry" />
        </mxCell>
        <mxCell id="cw-XEDxfb8f216Z1MOZz-317" value="Email" style="ellipse;whiteSpace=wrap;html=1;" vertex="1" parent="1">
          <mxGeometry x="-2620" y="180" width="100" height="30" as="geometry" />
        </mxCell>
        <mxCell id="cw-XEDxfb8f216Z1MOZz-318" value="Name" style="ellipse;whiteSpace=wrap;html=1;" vertex="1" parent="1">
          <mxGeometry x="-2500" y="180" width="100" height="30" as="geometry" />
        </mxCell>
        <mxCell id="cw-XEDxfb8f216Z1MOZz-319" value="Username" style="ellipse;whiteSpace=wrap;html=1;" vertex="1" parent="1">
          <mxGeometry x="-2760" y="288.74" width="100" height="30" as="geometry" />
        </mxCell>
        <mxCell id="cw-XEDxfb8f216Z1MOZz-320" style="edgeStyle=orthogonalEdgeStyle;rounded=0;orthogonalLoop=1;jettySize=auto;html=1;exitX=1;exitY=0.5;exitDx=0;exitDy=0;entryX=0.425;entryY=1.042;entryDx=0;entryDy=0;entryPerimeter=0;" edge="1" parent="1" source="cw-XEDxfb8f216Z1MOZz-316">
          <mxGeometry relative="1" as="geometry">
            <mxPoint x="-2457.5" y="210.00000000000023" as="targetPoint" />
          </mxGeometry>
        </mxCell>
        <mxCell id="cw-XEDxfb8f216Z1MOZz-321" style="edgeStyle=orthogonalEdgeStyle;rounded=0;orthogonalLoop=1;jettySize=auto;html=1;exitX=0.75;exitY=0;exitDx=0;exitDy=0;entryX=0.731;entryY=1.055;entryDx=0;entryDy=0;entryPerimeter=0;" edge="1" parent="1" source="cw-XEDxfb8f216Z1MOZz-316">
          <mxGeometry relative="1" as="geometry">
            <mxPoint x="-2546.8999999999996" y="210.3900000000001" as="targetPoint" />
          </mxGeometry>
        </mxCell>
        <mxCell id="cw-XEDxfb8f216Z1MOZz-322" style="edgeStyle=orthogonalEdgeStyle;rounded=0;orthogonalLoop=1;jettySize=auto;html=1;exitX=0;exitY=0.5;exitDx=0;exitDy=0;entryX=0.753;entryY=1.015;entryDx=0;entryDy=0;entryPerimeter=0;" edge="1" parent="1" source="cw-XEDxfb8f216Z1MOZz-316" target="cw-XEDxfb8f216Z1MOZz-319">
          <mxGeometry relative="1" as="geometry" />
        </mxCell>
        <mxCell id="cw-XEDxfb8f216Z1MOZz-323" value="Password" style="ellipse;whiteSpace=wrap;html=1;" vertex="1" parent="1">
          <mxGeometry x="-2750" y="228.74" width="100" height="30" as="geometry" />
        </mxCell>
        <mxCell id="cw-XEDxfb8f216Z1MOZz-324" value="Middle Man ID" style="ellipse;whiteSpace=wrap;html=1;" vertex="1" parent="1">
          <mxGeometry x="-2620" y="340" width="100" height="30" as="geometry" />
        </mxCell>
        <mxCell id="cw-XEDxfb8f216Z1MOZz-325" style="edgeStyle=orthogonalEdgeStyle;rounded=0;orthogonalLoop=1;jettySize=auto;html=1;exitX=0.25;exitY=1;exitDx=0;exitDy=0;entryX=0.391;entryY=0.148;entryDx=0;entryDy=0;entryPerimeter=0;" edge="1" parent="1" source="cw-XEDxfb8f216Z1MOZz-316" target="cw-XEDxfb8f216Z1MOZz-324">
          <mxGeometry relative="1" as="geometry" />
        </mxCell>
        <mxCell id="cw-XEDxfb8f216Z1MOZz-326" value="Assigns" style="rhombus;whiteSpace=wrap;html=1;" vertex="1" parent="1">
          <mxGeometry x="-2200" y="158.74" width="170" height="170" as="geometry" />
        </mxCell>
        <mxCell id="cw-XEDxfb8f216Z1MOZz-327" value="" style="endArrow=none;html=1;rounded=0;entryX=0;entryY=0.5;entryDx=0;entryDy=0;exitX=1;exitY=0.75;exitDx=0;exitDy=0;" edge="1" parent="1" source="cw-XEDxfb8f216Z1MOZz-316" target="cw-XEDxfb8f216Z1MOZz-326">
          <mxGeometry width="50" height="50" relative="1" as="geometry">
            <mxPoint x="-2470" y="320" as="sourcePoint" />
            <mxPoint x="-2420" y="270" as="targetPoint" />
          </mxGeometry>
        </mxCell>
        <mxCell id="cw-XEDxfb8f216Z1MOZz-328" value="" style="endArrow=none;html=1;rounded=0;entryX=0;entryY=1;entryDx=0;entryDy=0;exitX=1;exitY=0.5;exitDx=0;exitDy=0;" edge="1" parent="1" source="cw-XEDxfb8f216Z1MOZz-326" target="cw-XEDxfb8f216Z1MOZz-284">
          <mxGeometry width="50" height="50" relative="1" as="geometry">
            <mxPoint x="-2470" y="320" as="sourcePoint" />
            <mxPoint x="-2420" y="270" as="targetPoint" />
          </mxGeometry>
        </mxCell>
        <mxCell id="cw-XEDxfb8f216Z1MOZz-334" value="1" style="text;html=1;align=center;verticalAlign=middle;whiteSpace=wrap;rounded=0;" vertex="1" parent="1">
          <mxGeometry x="-2270" y="205" width="60" height="30" as="geometry" />
        </mxCell>
        <mxCell id="cw-XEDxfb8f216Z1MOZz-336" value="M" style="text;html=1;align=center;verticalAlign=middle;whiteSpace=wrap;rounded=0;" vertex="1" parent="1">
          <mxGeometry x="-2030" y="235" width="60" height="30" as="geometry" />
        </mxCell>
        <mxCell id="cw-XEDxfb8f216Z1MOZz-370" style="edgeStyle=orthogonalEdgeStyle;rounded=0;orthogonalLoop=1;jettySize=auto;html=1;exitX=0.5;exitY=1;exitDx=0;exitDy=0;entryX=0.5;entryY=0;entryDx=0;entryDy=0;" edge="1" parent="1" source="cw-XEDxfb8f216Z1MOZz-362" target="cw-XEDxfb8f216Z1MOZz-367">
          <mxGeometry relative="1" as="geometry" />
        </mxCell>
        <mxCell id="cw-XEDxfb8f216Z1MOZz-362" value="Medicines" style="rounded=0;whiteSpace=wrap;html=1;" vertex="1" parent="1">
          <mxGeometry x="-730" y="1290" width="120" height="60" as="geometry" />
        </mxCell>
        <mxCell id="cw-XEDxfb8f216Z1MOZz-363" value="" style="endArrow=none;html=1;rounded=0;exitX=0.5;exitY=0;exitDx=0;exitDy=0;" edge="1" parent="1" source="cw-XEDxfb8f216Z1MOZz-362" target="cw-XEDxfb8f216Z1MOZz-364">
          <mxGeometry width="50" height="50" relative="1" as="geometry">
            <mxPoint x="-400" y="1190" as="sourcePoint" />
            <mxPoint x="-700" y="1210" as="targetPoint" />
          </mxGeometry>
        </mxCell>
        <mxCell id="cw-XEDxfb8f216Z1MOZz-364" value="" style="rhombus;whiteSpace=wrap;html=1;" vertex="1" parent="1">
          <mxGeometry x="-740" y="1150" width="130" height="80" as="geometry" />
        </mxCell>
        <mxCell id="cw-XEDxfb8f216Z1MOZz-366" value="&lt;u&gt;ID&lt;/u&gt;" style="ellipse;whiteSpace=wrap;html=1;" vertex="1" parent="1">
          <mxGeometry x="-863" y="1330" width="100" height="30" as="geometry" />
        </mxCell>
        <mxCell id="cw-XEDxfb8f216Z1MOZz-367" value="Name" style="ellipse;whiteSpace=wrap;html=1;" vertex="1" parent="1">
          <mxGeometry x="-720" y="1380" width="100" height="30" as="geometry" />
        </mxCell>
        <mxCell id="cw-XEDxfb8f216Z1MOZz-368" value="Price" style="ellipse;whiteSpace=wrap;html=1;" vertex="1" parent="1">
          <mxGeometry x="-580" y="1330" width="100" height="30" as="geometry" />
        </mxCell>
        <mxCell id="cw-XEDxfb8f216Z1MOZz-369" style="edgeStyle=orthogonalEdgeStyle;rounded=0;orthogonalLoop=1;jettySize=auto;html=1;exitX=0;exitY=0.75;exitDx=0;exitDy=0;entryX=0.929;entryY=0.31;entryDx=0;entryDy=0;entryPerimeter=0;" edge="1" parent="1" source="cw-XEDxfb8f216Z1MOZz-362" target="cw-XEDxfb8f216Z1MOZz-366">
          <mxGeometry relative="1" as="geometry" />
        </mxCell>
        <mxCell id="cw-XEDxfb8f216Z1MOZz-371" style="edgeStyle=orthogonalEdgeStyle;rounded=0;orthogonalLoop=1;jettySize=auto;html=1;exitX=1;exitY=0.5;exitDx=0;exitDy=0;entryX=0.264;entryY=0.805;entryDx=0;entryDy=0;entryPerimeter=0;" edge="1" parent="1" source="cw-XEDxfb8f216Z1MOZz-362" target="cw-XEDxfb8f216Z1MOZz-368">
          <mxGeometry relative="1" as="geometry" />
        </mxCell>
        <mxCell id="cw-XEDxfb8f216Z1MOZz-372" value="Approval Status&amp;nbsp;" style="ellipse;whiteSpace=wrap;html=1;" vertex="1" parent="1">
          <mxGeometry x="-910" y="958.75" width="100" height="30" as="geometry" />
        </mxCell>
        <mxCell id="cw-XEDxfb8f216Z1MOZz-373" style="edgeStyle=orthogonalEdgeStyle;rounded=0;orthogonalLoop=1;jettySize=auto;html=1;exitX=0;exitY=0.5;exitDx=0;exitDy=0;entryX=0.936;entryY=0.627;entryDx=0;entryDy=0;entryPerimeter=0;" edge="1" parent="1" source="cw-XEDxfb8f216Z1MOZz-157" target="cw-XEDxfb8f216Z1MOZz-372">
          <mxGeometry relative="1" as="geometry" />
        </mxCell>
        <mxCell id="cw-XEDxfb8f216Z1MOZz-374" value="Payment Status&amp;nbsp;" style="ellipse;whiteSpace=wrap;html=1;" vertex="1" parent="1">
          <mxGeometry x="-680" y="555" width="100" height="30" as="geometry" />
        </mxCell>
        <mxCell id="cw-XEDxfb8f216Z1MOZz-375" style="edgeStyle=orthogonalEdgeStyle;rounded=0;orthogonalLoop=1;jettySize=auto;html=1;exitX=1;exitY=0.25;exitDx=0;exitDy=0;entryX=0.293;entryY=0.067;entryDx=0;entryDy=0;entryPerimeter=0;" edge="1" parent="1" source="cw-XEDxfb8f216Z1MOZz-40" target="cw-XEDxfb8f216Z1MOZz-374">
          <mxGeometry relative="1" as="geometry" />
        </mxCell>
        <mxCell id="cw-XEDxfb8f216Z1MOZz-376" value="Username" style="ellipse;whiteSpace=wrap;html=1;" vertex="1" parent="1">
          <mxGeometry x="-970" y="95" width="100" height="30" as="geometry" />
        </mxCell>
        <mxCell id="cw-XEDxfb8f216Z1MOZz-377" style="edgeStyle=orthogonalEdgeStyle;rounded=0;orthogonalLoop=1;jettySize=auto;html=1;exitX=0.75;exitY=0;exitDx=0;exitDy=0;entryX=0.3;entryY=1.167;entryDx=0;entryDy=0;entryPerimeter=0;" edge="1" parent="1" source="cw-XEDxfb8f216Z1MOZz-262" target="cw-XEDxfb8f216Z1MOZz-376">
          <mxGeometry relative="1" as="geometry" />
        </mxCell>
        <mxCell id="cw-XEDxfb8f216Z1MOZz-378" style="edgeStyle=orthogonalEdgeStyle;rounded=0;orthogonalLoop=1;jettySize=auto;html=1;exitX=0;exitY=0;exitDx=0;exitDy=0;entryX=1;entryY=0.5;entryDx=0;entryDy=0;" edge="1" parent="1" source="cw-XEDxfb8f216Z1MOZz-382" target="cw-XEDxfb8f216Z1MOZz-385">
          <mxGeometry relative="1" as="geometry" />
        </mxCell>
        <mxCell id="cw-XEDxfb8f216Z1MOZz-379" style="edgeStyle=orthogonalEdgeStyle;rounded=0;orthogonalLoop=1;jettySize=auto;html=1;exitX=0.75;exitY=0;exitDx=0;exitDy=0;entryX=0;entryY=1;entryDx=0;entryDy=0;" edge="1" parent="1" source="cw-XEDxfb8f216Z1MOZz-382" target="cw-XEDxfb8f216Z1MOZz-386">
          <mxGeometry relative="1" as="geometry" />
        </mxCell>
        <mxCell id="cw-XEDxfb8f216Z1MOZz-380" style="edgeStyle=orthogonalEdgeStyle;rounded=0;orthogonalLoop=1;jettySize=auto;html=1;exitX=1;exitY=0;exitDx=0;exitDy=0;entryX=0;entryY=0.5;entryDx=0;entryDy=0;" edge="1" parent="1" source="cw-XEDxfb8f216Z1MOZz-382" target="cw-XEDxfb8f216Z1MOZz-387">
          <mxGeometry relative="1" as="geometry" />
        </mxCell>
        <mxCell id="cw-XEDxfb8f216Z1MOZz-381" style="edgeStyle=orthogonalEdgeStyle;rounded=0;orthogonalLoop=1;jettySize=auto;html=1;exitX=1;exitY=0.5;exitDx=0;exitDy=0;entryX=0;entryY=0.5;entryDx=0;entryDy=0;" edge="1" parent="1" source="cw-XEDxfb8f216Z1MOZz-382" target="cw-XEDxfb8f216Z1MOZz-388">
          <mxGeometry relative="1" as="geometry" />
        </mxCell>
        <mxCell id="cw-XEDxfb8f216Z1MOZz-415" style="edgeStyle=orthogonalEdgeStyle;rounded=0;orthogonalLoop=1;jettySize=auto;html=1;exitX=0;exitY=0.5;exitDx=0;exitDy=0;entryX=0.5;entryY=0;entryDx=0;entryDy=0;" edge="1" parent="1" source="cw-XEDxfb8f216Z1MOZz-382" target="cw-XEDxfb8f216Z1MOZz-414">
          <mxGeometry relative="1" as="geometry" />
        </mxCell>
        <mxCell id="cw-XEDxfb8f216Z1MOZz-382" value="Time Table" style="rounded=0;whiteSpace=wrap;html=1;" vertex="1" parent="1">
          <mxGeometry x="-743" y="-65" width="120" height="60" as="geometry" />
        </mxCell>
        <mxCell id="cw-XEDxfb8f216Z1MOZz-383" value="&lt;u&gt;Slot ID&lt;/u&gt;" style="ellipse;whiteSpace=wrap;html=1;" vertex="1" parent="1">
          <mxGeometry x="-843" y="-5" width="100" height="30" as="geometry" />
        </mxCell>
        <mxCell id="cw-XEDxfb8f216Z1MOZz-384" style="edgeStyle=orthogonalEdgeStyle;rounded=0;orthogonalLoop=1;jettySize=auto;html=1;exitX=0.5;exitY=1;exitDx=0;exitDy=0;entryX=0.753;entryY=1.015;entryDx=0;entryDy=0;entryPerimeter=0;" edge="1" parent="1" source="cw-XEDxfb8f216Z1MOZz-382" target="cw-XEDxfb8f216Z1MOZz-383">
          <mxGeometry relative="1" as="geometry" />
        </mxCell>
        <mxCell id="cw-XEDxfb8f216Z1MOZz-385" value="Doc ID" style="ellipse;whiteSpace=wrap;html=1;" vertex="1" parent="1">
          <mxGeometry x="-793" y="-185" width="100" height="30" as="geometry" />
        </mxCell>
        <mxCell id="cw-XEDxfb8f216Z1MOZz-386" value="Day" style="ellipse;whiteSpace=wrap;html=1;" vertex="1" parent="1">
          <mxGeometry x="-653" y="-130" width="100" height="30" as="geometry" />
        </mxCell>
        <mxCell id="cw-XEDxfb8f216Z1MOZz-387" value="Start Time" style="ellipse;whiteSpace=wrap;html=1;" vertex="1" parent="1">
          <mxGeometry x="-597" y="-75" width="100" height="30" as="geometry" />
        </mxCell>
        <mxCell id="cw-XEDxfb8f216Z1MOZz-388" value="End Time" style="ellipse;whiteSpace=wrap;html=1;" vertex="1" parent="1">
          <mxGeometry x="-597" y="-25" width="100" height="30" as="geometry" />
        </mxCell>
        <mxCell id="cw-XEDxfb8f216Z1MOZz-389" value="" style="endArrow=none;html=1;rounded=0;entryX=0.688;entryY=0.976;entryDx=0;entryDy=0;entryPerimeter=0;exitX=0;exitY=0.5;exitDx=0;exitDy=0;" edge="1" parent="1" source="cw-XEDxfb8f216Z1MOZz-390" target="cw-XEDxfb8f216Z1MOZz-382">
          <mxGeometry width="50" height="50" relative="1" as="geometry">
            <mxPoint x="-560" y="70" as="sourcePoint" />
            <mxPoint x="-590" y="100" as="targetPoint" />
          </mxGeometry>
        </mxCell>
        <mxCell id="cw-XEDxfb8f216Z1MOZz-390" value="Has" style="rhombus;whiteSpace=wrap;html=1;" vertex="1" parent="1">
          <mxGeometry x="-577" y="35" width="80" height="80" as="geometry" />
        </mxCell>
        <mxCell id="cw-XEDxfb8f216Z1MOZz-391" value="" style="endArrow=none;html=1;rounded=0;entryX=0.5;entryY=1;entryDx=0;entryDy=0;exitX=0.835;exitY=-0.017;exitDx=0;exitDy=0;exitPerimeter=0;" edge="1" parent="1" source="cw-XEDxfb8f216Z1MOZz-16" target="cw-XEDxfb8f216Z1MOZz-390">
          <mxGeometry width="50" height="50" relative="1" as="geometry">
            <mxPoint x="-640" y="150" as="sourcePoint" />
            <mxPoint x="-590" y="100" as="targetPoint" />
          </mxGeometry>
        </mxCell>
        <mxCell id="cw-XEDxfb8f216Z1MOZz-392" value="1" style="text;html=1;align=center;verticalAlign=middle;whiteSpace=wrap;rounded=0;" vertex="1" parent="1">
          <mxGeometry x="-630" y="55" width="60" height="30" as="geometry" />
        </mxCell>
        <mxCell id="cw-XEDxfb8f216Z1MOZz-393" value="1" style="text;html=1;align=center;verticalAlign=middle;whiteSpace=wrap;rounded=0;" vertex="1" parent="1">
          <mxGeometry x="-570" y="115" width="60" height="30" as="geometry" />
        </mxCell>
        <mxCell id="cw-XEDxfb8f216Z1MOZz-394" value="Price" style="ellipse;whiteSpace=wrap;html=1;" vertex="1" parent="1">
          <mxGeometry x="-875" y="180" width="100" height="30" as="geometry" />
        </mxCell>
        <mxCell id="cw-XEDxfb8f216Z1MOZz-395" style="edgeStyle=orthogonalEdgeStyle;rounded=0;orthogonalLoop=1;jettySize=auto;html=1;exitX=1;exitY=0.25;exitDx=0;exitDy=0;entryX=0.092;entryY=0.821;entryDx=0;entryDy=0;entryPerimeter=0;" edge="1" parent="1" source="cw-XEDxfb8f216Z1MOZz-262" target="cw-XEDxfb8f216Z1MOZz-394">
          <mxGeometry relative="1" as="geometry" />
        </mxCell>
        <mxCell id="cw-XEDxfb8f216Z1MOZz-396" value="National Id" style="ellipse;whiteSpace=wrap;html=1;" vertex="1" parent="1">
          <mxGeometry x="30" y="55" width="100" height="30" as="geometry" />
        </mxCell>
        <mxCell id="cw-XEDxfb8f216Z1MOZz-398" style="edgeStyle=orthogonalEdgeStyle;rounded=0;orthogonalLoop=1;jettySize=auto;html=1;exitX=0;exitY=0;exitDx=0;exitDy=0;entryX=1;entryY=0.5;entryDx=0;entryDy=0;" edge="1" parent="1" source="cw-XEDxfb8f216Z1MOZz-399" target="cw-XEDxfb8f216Z1MOZz-404">
          <mxGeometry relative="1" as="geometry" />
        </mxCell>
        <mxCell id="cw-XEDxfb8f216Z1MOZz-399" value="Finance&amp;nbsp;" style="rounded=0;whiteSpace=wrap;html=1;" vertex="1" parent="1">
          <mxGeometry x="-310" y="-290" width="120" height="60" as="geometry" />
        </mxCell>
        <mxCell id="cw-XEDxfb8f216Z1MOZz-400" value="Name" style="ellipse;whiteSpace=wrap;html=1;" vertex="1" parent="1">
          <mxGeometry x="-180" y="-360" width="100" height="30" as="geometry" />
        </mxCell>
        <mxCell id="cw-XEDxfb8f216Z1MOZz-401" value="&lt;u&gt;Username&lt;/u&gt;" style="ellipse;whiteSpace=wrap;html=1;" vertex="1" parent="1">
          <mxGeometry x="-440" y="-250" width="100" height="30" as="geometry" />
        </mxCell>
        <mxCell id="cw-XEDxfb8f216Z1MOZz-402" style="edgeStyle=orthogonalEdgeStyle;rounded=0;orthogonalLoop=1;jettySize=auto;html=1;exitX=1;exitY=0.5;exitDx=0;exitDy=0;entryX=0.425;entryY=1.042;entryDx=0;entryDy=0;entryPerimeter=0;" edge="1" parent="1" source="cw-XEDxfb8f216Z1MOZz-399" target="cw-XEDxfb8f216Z1MOZz-400">
          <mxGeometry relative="1" as="geometry" />
        </mxCell>
        <mxCell id="cw-XEDxfb8f216Z1MOZz-403" style="edgeStyle=orthogonalEdgeStyle;rounded=0;orthogonalLoop=1;jettySize=auto;html=1;exitX=0;exitY=0.5;exitDx=0;exitDy=0;entryX=0.753;entryY=1.015;entryDx=0;entryDy=0;entryPerimeter=0;" edge="1" parent="1" source="cw-XEDxfb8f216Z1MOZz-399" target="cw-XEDxfb8f216Z1MOZz-401">
          <mxGeometry relative="1" as="geometry" />
        </mxCell>
        <mxCell id="cw-XEDxfb8f216Z1MOZz-404" value="Password" style="ellipse;whiteSpace=wrap;html=1;" vertex="1" parent="1">
          <mxGeometry x="-430" y="-310" width="100" height="30" as="geometry" />
        </mxCell>
        <mxCell id="cw-XEDxfb8f216Z1MOZz-405" value="Sees&amp;nbsp;" style="rhombus;whiteSpace=wrap;html=1;" vertex="1" parent="1">
          <mxGeometry x="-410" y="-100" width="120" height="80" as="geometry" />
        </mxCell>
        <mxCell id="cw-XEDxfb8f216Z1MOZz-406" value="" style="endArrow=none;html=1;rounded=0;entryX=0.5;entryY=0;entryDx=0;entryDy=0;exitX=0.5;exitY=1;exitDx=0;exitDy=0;" edge="1" parent="1" source="cw-XEDxfb8f216Z1MOZz-399" target="cw-XEDxfb8f216Z1MOZz-405">
          <mxGeometry width="50" height="50" relative="1" as="geometry">
            <mxPoint x="-390" y="-30" as="sourcePoint" />
            <mxPoint x="-340" y="-80" as="targetPoint" />
          </mxGeometry>
        </mxCell>
        <mxCell id="cw-XEDxfb8f216Z1MOZz-407" value="" style="endArrow=none;html=1;rounded=0;exitX=0.5;exitY=1;exitDx=0;exitDy=0;entryX=0.5;entryY=0;entryDx=0;entryDy=0;" edge="1" parent="1" source="cw-XEDxfb8f216Z1MOZz-405" target="cw-XEDxfb8f216Z1MOZz-16">
          <mxGeometry width="50" height="50" relative="1" as="geometry">
            <mxPoint x="-390" y="-30" as="sourcePoint" />
            <mxPoint x="-340" y="-80" as="targetPoint" />
          </mxGeometry>
        </mxCell>
        <mxCell id="cw-XEDxfb8f216Z1MOZz-408" value="1" style="text;html=1;align=center;verticalAlign=middle;whiteSpace=wrap;rounded=0;" vertex="1" parent="1">
          <mxGeometry x="-350" y="-120" width="60" height="30" as="geometry" />
        </mxCell>
        <mxCell id="cw-XEDxfb8f216Z1MOZz-409" value="M" style="text;html=1;align=center;verticalAlign=middle;whiteSpace=wrap;rounded=0;" vertex="1" parent="1">
          <mxGeometry x="-370" y="-30" width="60" height="30" as="geometry" />
        </mxCell>
        <mxCell id="cw-XEDxfb8f216Z1MOZz-414" value="Has" style="rhombus;whiteSpace=wrap;html=1;" vertex="1" parent="1">
          <mxGeometry x="-1130" y="-35" width="160" height="80" as="geometry" />
        </mxCell>
        <mxCell id="cw-XEDxfb8f216Z1MOZz-416" value="1" style="text;html=1;align=center;verticalAlign=middle;whiteSpace=wrap;rounded=0;" vertex="1" parent="1">
          <mxGeometry x="-1115" y="-60" width="60" height="30" as="geometry" />
        </mxCell>
        <mxCell id="cw-XEDxfb8f216Z1MOZz-417" value="M" style="text;html=1;align=center;verticalAlign=middle;whiteSpace=wrap;rounded=0;" vertex="1" parent="1">
          <mxGeometry x="-1050" y="40.05" width="60" height="30" as="geometry" />
        </mxCell>
        <mxCell id="cw-XEDxfb8f216Z1MOZz-420" style="edgeStyle=orthogonalEdgeStyle;rounded=0;orthogonalLoop=1;jettySize=auto;html=1;exitX=0.75;exitY=0;exitDx=0;exitDy=0;entryX=0.5;entryY=1;entryDx=0;entryDy=0;" edge="1" parent="1" source="cw-XEDxfb8f216Z1MOZz-426" target="cw-XEDxfb8f216Z1MOZz-428">
          <mxGeometry relative="1" as="geometry" />
        </mxCell>
        <mxCell id="cw-XEDxfb8f216Z1MOZz-421" style="edgeStyle=orthogonalEdgeStyle;rounded=0;orthogonalLoop=1;jettySize=auto;html=1;exitX=0.25;exitY=0;exitDx=0;exitDy=0;entryX=1;entryY=1;entryDx=0;entryDy=0;" edge="1" parent="1" source="cw-XEDxfb8f216Z1MOZz-426" target="cw-XEDxfb8f216Z1MOZz-427">
          <mxGeometry relative="1" as="geometry" />
        </mxCell>
        <mxCell id="cw-XEDxfb8f216Z1MOZz-425" style="edgeStyle=orthogonalEdgeStyle;rounded=0;orthogonalLoop=1;jettySize=auto;html=1;exitX=0.5;exitY=1;exitDx=0;exitDy=0;entryX=0.5;entryY=0;entryDx=0;entryDy=0;" edge="1" parent="1" source="cw-XEDxfb8f216Z1MOZz-426" target="cw-XEDxfb8f216Z1MOZz-437">
          <mxGeometry relative="1" as="geometry" />
        </mxCell>
        <mxCell id="cw-XEDxfb8f216Z1MOZz-426" value="Lab Report Details" style="rounded=0;whiteSpace=wrap;html=1;" vertex="1" parent="1">
          <mxGeometry x="130" y="988.75" width="120" height="60" as="geometry" />
        </mxCell>
        <mxCell id="cw-XEDxfb8f216Z1MOZz-427" value="Report ID" style="ellipse;whiteSpace=wrap;html=1;" vertex="1" parent="1">
          <mxGeometry x="70" y="883.75" width="100" height="30" as="geometry" />
        </mxCell>
        <mxCell id="cw-XEDxfb8f216Z1MOZz-428" value="&lt;u&gt;Detail ID&lt;/u&gt;" style="ellipse;whiteSpace=wrap;html=1;" vertex="1" parent="1">
          <mxGeometry x="170" y="903.75" width="100" height="30" as="geometry" />
        </mxCell>
        <mxCell id="cw-XEDxfb8f216Z1MOZz-434" style="edgeStyle=orthogonalEdgeStyle;rounded=0;orthogonalLoop=1;jettySize=auto;html=1;exitX=0.5;exitY=1;exitDx=0;exitDy=0;entryX=0.5;entryY=0;entryDx=0;entryDy=0;" edge="1" parent="1" source="cw-XEDxfb8f216Z1MOZz-435" target="cw-XEDxfb8f216Z1MOZz-439">
          <mxGeometry relative="1" as="geometry" />
        </mxCell>
        <mxCell id="cw-XEDxfb8f216Z1MOZz-435" value="Medicines" style="rounded=0;whiteSpace=wrap;html=1;" vertex="1" parent="1">
          <mxGeometry x="130" y="1320" width="120" height="60" as="geometry" />
        </mxCell>
        <mxCell id="cw-XEDxfb8f216Z1MOZz-436" value="" style="endArrow=none;html=1;rounded=0;exitX=0.5;exitY=0;exitDx=0;exitDy=0;" edge="1" parent="1" source="cw-XEDxfb8f216Z1MOZz-435" target="cw-XEDxfb8f216Z1MOZz-437">
          <mxGeometry width="50" height="50" relative="1" as="geometry">
            <mxPoint x="460" y="1220" as="sourcePoint" />
            <mxPoint x="160" y="1240" as="targetPoint" />
          </mxGeometry>
        </mxCell>
        <mxCell id="cw-XEDxfb8f216Z1MOZz-437" value="" style="rhombus;whiteSpace=wrap;html=1;" vertex="1" parent="1">
          <mxGeometry x="120" y="1180" width="130" height="80" as="geometry" />
        </mxCell>
        <mxCell id="cw-XEDxfb8f216Z1MOZz-438" value="&lt;u&gt;ID&lt;/u&gt;" style="ellipse;whiteSpace=wrap;html=1;" vertex="1" parent="1">
          <mxGeometry x="-3" y="1360" width="100" height="30" as="geometry" />
        </mxCell>
        <mxCell id="cw-XEDxfb8f216Z1MOZz-439" value="Name" style="ellipse;whiteSpace=wrap;html=1;" vertex="1" parent="1">
          <mxGeometry x="140" y="1410" width="100" height="30" as="geometry" />
        </mxCell>
        <mxCell id="cw-XEDxfb8f216Z1MOZz-440" value="Price" style="ellipse;whiteSpace=wrap;html=1;" vertex="1" parent="1">
          <mxGeometry x="280" y="1360" width="100" height="30" as="geometry" />
        </mxCell>
        <mxCell id="cw-XEDxfb8f216Z1MOZz-441" style="edgeStyle=orthogonalEdgeStyle;rounded=0;orthogonalLoop=1;jettySize=auto;html=1;exitX=0;exitY=0.75;exitDx=0;exitDy=0;entryX=0.929;entryY=0.31;entryDx=0;entryDy=0;entryPerimeter=0;" edge="1" parent="1" source="cw-XEDxfb8f216Z1MOZz-435" target="cw-XEDxfb8f216Z1MOZz-438">
          <mxGeometry relative="1" as="geometry" />
        </mxCell>
        <mxCell id="cw-XEDxfb8f216Z1MOZz-442" style="edgeStyle=orthogonalEdgeStyle;rounded=0;orthogonalLoop=1;jettySize=auto;html=1;exitX=1;exitY=0.5;exitDx=0;exitDy=0;entryX=0.264;entryY=0.805;entryDx=0;entryDy=0;entryPerimeter=0;" edge="1" parent="1" source="cw-XEDxfb8f216Z1MOZz-435" target="cw-XEDxfb8f216Z1MOZz-440">
          <mxGeometry relative="1" as="geometry" />
        </mxCell>
        <mxCell id="cw-XEDxfb8f216Z1MOZz-443" value="Approval Status&amp;nbsp;" style="ellipse;whiteSpace=wrap;html=1;" vertex="1" parent="1">
          <mxGeometry x="-50" y="988.75" width="100" height="30" as="geometry" />
        </mxCell>
        <mxCell id="cw-XEDxfb8f216Z1MOZz-444" style="edgeStyle=orthogonalEdgeStyle;rounded=0;orthogonalLoop=1;jettySize=auto;html=1;exitX=0;exitY=0.5;exitDx=0;exitDy=0;entryX=0.936;entryY=0.627;entryDx=0;entryDy=0;entryPerimeter=0;" edge="1" parent="1" source="cw-XEDxfb8f216Z1MOZz-426" target="cw-XEDxfb8f216Z1MOZz-443">
          <mxGeometry relative="1" as="geometry" />
        </mxCell>
        <mxCell id="cw-XEDxfb8f216Z1MOZz-447" value="Has" style="rhombus;whiteSpace=wrap;html=1;" vertex="1" parent="1">
          <mxGeometry x="10" y="720" width="80" height="80" as="geometry" />
        </mxCell>
        <mxCell id="cw-XEDxfb8f216Z1MOZz-448" value="1" style="text;html=1;align=center;verticalAlign=middle;whiteSpace=wrap;rounded=0;" vertex="1" parent="1">
          <mxGeometry x="-10" y="700" width="60" height="30" as="geometry" />
        </mxCell>
        <mxCell id="cw-XEDxfb8f216Z1MOZz-449" style="edgeStyle=orthogonalEdgeStyle;rounded=0;orthogonalLoop=1;jettySize=auto;html=1;exitX=0.5;exitY=1;exitDx=0;exitDy=0;entryX=0.125;entryY=-0.054;entryDx=0;entryDy=0;entryPerimeter=0;" edge="1" parent="1" source="cw-XEDxfb8f216Z1MOZz-447" target="cw-XEDxfb8f216Z1MOZz-426">
          <mxGeometry relative="1" as="geometry" />
        </mxCell>
        <mxCell id="cw-XEDxfb8f216Z1MOZz-450" value="M" style="text;html=1;align=center;verticalAlign=middle;whiteSpace=wrap;rounded=0;" vertex="1" parent="1">
          <mxGeometry x="39.96000000000001" y="790" width="60" height="30" as="geometry" />
        </mxCell>
        <mxCell id="cw-XEDxfb8f216Z1MOZz-451" value="M" style="text;html=1;align=center;verticalAlign=middle;whiteSpace=wrap;rounded=0;" vertex="1" parent="1">
          <mxGeometry x="-680" y="1120" width="60" height="30" as="geometry" />
        </mxCell>
        <mxCell id="cw-XEDxfb8f216Z1MOZz-452" value="M" style="text;html=1;align=center;verticalAlign=middle;whiteSpace=wrap;rounded=0;" vertex="1" parent="1">
          <mxGeometry x="120" y="1150" width="60" height="30" as="geometry" />
        </mxCell>
        <mxCell id="cw-XEDxfb8f216Z1MOZz-453" value="1" style="text;html=1;align=center;verticalAlign=middle;whiteSpace=wrap;rounded=0;" vertex="1" parent="1">
          <mxGeometry x="-680" y="1220" width="60" height="30" as="geometry" />
        </mxCell>
        <mxCell id="cw-XEDxfb8f216Z1MOZz-454" value="1" style="text;html=1;align=center;verticalAlign=middle;whiteSpace=wrap;rounded=0;" vertex="1" parent="1">
          <mxGeometry x="190" y="1250" width="60" height="30" as="geometry" />
        </mxCell>
      </root>
    </mxGraphModel>
  </diagram>
</mxfile>
